solid OpenSCAD_Model
  facet normal 0.909632 -0 0.415415
    outer loop
      vertex 12.413 -29.7537 3.64477
      vertex 13.2101 29.7537 1.89932
      vertex 12.413 29.7537 3.64477
    endloop
  endfacet
  facet normal 0.909632 0 0.415415
    outer loop
      vertex 13.2101 29.7537 1.89932
      vertex 12.413 -29.7537 3.64477
      vertex 13.2101 -29.7537 1.89932
    endloop
  endfacet
  facet normal -0 0 1
    outer loop
      vertex -7.70101 29.7537 6.67296
      vertex -6.74158 -29.7537 6.67296
      vertex -6.74158 29.7537 6.67296
    endloop
  endfacet
  facet normal 0 0 1
    outer loop
      vertex -6.74158 -29.7537 6.67296
      vertex -7.70101 29.7537 6.67296
      vertex -7.70101 -29.7537 6.67296
    endloop
  endfacet
  facet normal -0 0 1
    outer loop
      vertex 6.74158 29.7537 6.67296
      vertex 7.70101 -29.7537 6.67296
      vertex 7.70101 29.7537 6.67296
    endloop
  endfacet
  facet normal 0 0 1
    outer loop
      vertex 7.70101 -29.7537 6.67296
      vertex 6.74158 29.7537 6.67296
      vertex 6.74158 -29.7537 6.67296
    endloop
  endfacet
  facet normal -0.989821 0 0.142315
    outer loop
      vertex -13.4832 -29.7537 0
      vertex -13.2101 29.7537 1.89932
      vertex -13.4832 29.7537 0
    endloop
  endfacet
  facet normal -0.989821 0 0.142315
    outer loop
      vertex -13.2101 29.7537 1.89932
      vertex -13.4832 -29.7537 0
      vertex -13.2101 -29.7537 1.89932
    endloop
  endfacet
  facet normal 0.989821 -0 0.142315
    outer loop
      vertex 13.2101 -29.7537 1.89932
      vertex 13.4832 29.7537 0
      vertex 13.2101 29.7537 1.89932
    endloop
  endfacet
  facet normal 0.989821 0 0.142315
    outer loop
      vertex 13.4832 29.7537 0
      vertex 13.2101 -29.7537 1.89932
      vertex 13.4832 -29.7537 0
    endloop
  endfacet
  facet normal 0 -1 -0
    outer loop
      vertex -6.74158 -29.7537 12.3087
      vertex -6.74158 -29.7537 6.67296
      vertex 6.74158 -29.7537 12.3087
    endloop
  endfacet
  facet normal 0 -1 0
    outer loop
      vertex -6.74158 -29.7537 6.67296
      vertex -6.74158 -29.7537 12.3087
      vertex -6.74158 -29.7537 14.0225
    endloop
  endfacet
  facet normal 0 -1 0
    outer loop
      vertex 6.74158 -29.7537 12.3087
      vertex 6.74158 -29.7537 6.67296
      vertex 6.74158 -29.7537 14.0225
    endloop
  endfacet
  facet normal 0 -1 0
    outer loop
      vertex 6.74158 -29.7537 6.67296
      vertex 6.74158 -29.7537 12.3087
      vertex -6.74158 -29.7537 6.67296
    endloop
  endfacet
  facet normal 0 -1 0
    outer loop
      vertex -9.54214 -29.7537 6.13236
      vertex -6.74158 -29.7537 6.67296
      vertex -7.70101 -29.7537 6.67296
    endloop
  endfacet
  facet normal 0 -1 -0
    outer loop
      vertex -6.74158 -29.7537 6.67296
      vertex -13.4832 -29.7537 0
      vertex 6.74158 -29.7537 6.67296
    endloop
  endfacet
  facet normal 0 -1 0
    outer loop
      vertex -11.1564 -29.7537 5.09495
      vertex -6.74158 -29.7537 6.67296
      vertex -9.54214 -29.7537 6.13236
    endloop
  endfacet
  facet normal 0 -1 0
    outer loop
      vertex 13.4832 -29.7537 0
      vertex 6.74158 -29.7537 6.67296
      vertex -13.4832 -29.7537 0
    endloop
  endfacet
  facet normal 0 -1 0
    outer loop
      vertex -6.74158 -29.7537 6.67296
      vertex -11.1564 -29.7537 5.09495
      vertex -13.4832 -29.7537 0
    endloop
  endfacet
  facet normal -0 -1 -0
    outer loop
      vertex 11.1564 -29.7537 5.09495
      vertex 6.74158 -29.7537 6.67296
      vertex 13.4832 -29.7537 0
    endloop
  endfacet
  facet normal 0 -1 0
    outer loop
      vertex -13.4832 -29.7537 0
      vertex -11.1564 -29.7537 5.09495
      vertex -12.413 -29.7537 3.64477
    endloop
  endfacet
  facet normal 0 -1 0
    outer loop
      vertex 6.74158 -29.7537 6.67296
      vertex 9.54214 -29.7537 6.13236
      vertex 7.70101 -29.7537 6.67296
    endloop
  endfacet
  facet normal 0 -1 0
    outer loop
      vertex -13.4832 -29.7537 0
      vertex -12.413 -29.7537 3.64477
      vertex -13.2101 -29.7537 1.89932
    endloop
  endfacet
  facet normal 0 -1 0
    outer loop
      vertex 6.74158 -29.7537 6.67296
      vertex 11.1564 -29.7537 5.09495
      vertex 9.54214 -29.7537 6.13236
    endloop
  endfacet
  facet normal 0 -1 0
    outer loop
      vertex 11.1564 -29.7537 5.09495
      vertex 13.4832 -29.7537 0
      vertex 12.413 -29.7537 3.64477
    endloop
  endfacet
  facet normal 0 -1 0
    outer loop
      vertex 12.413 -29.7537 3.64477
      vertex 13.4832 -29.7537 0
      vertex 13.2101 -29.7537 1.89932
    endloop
  endfacet
  facet normal -0.75575 0 0.654861
    outer loop
      vertex -12.413 -29.7537 3.64477
      vertex -11.1564 29.7537 5.09495
      vertex -12.413 29.7537 3.64477
    endloop
  endfacet
  facet normal -0.75575 0 0.654861
    outer loop
      vertex -11.1564 29.7537 5.09495
      vertex -12.413 -29.7537 3.64477
      vertex -11.1564 -29.7537 5.09495
    endloop
  endfacet
  facet normal -0.540641 0 0.841254
    outer loop
      vertex -11.1564 29.7537 5.09495
      vertex -9.54214 -29.7537 6.13236
      vertex -9.54214 29.7537 6.13236
    endloop
  endfacet
  facet normal -0.540641 0 0.841254
    outer loop
      vertex -9.54214 -29.7537 6.13236
      vertex -11.1564 29.7537 5.09495
      vertex -11.1564 -29.7537 5.09495
    endloop
  endfacet
  facet normal -0.281733 0 0.959493
    outer loop
      vertex -9.54214 29.7537 6.13236
      vertex -7.70101 -29.7537 6.67296
      vertex -7.70101 29.7537 6.67296
    endloop
  endfacet
  facet normal -0.281733 0 0.959493
    outer loop
      vertex -7.70101 -29.7537 6.67296
      vertex -9.54214 29.7537 6.13236
      vertex -9.54214 -29.7537 6.13236
    endloop
  endfacet
  facet normal 0.281733 0 0.959493
    outer loop
      vertex 7.70101 29.7537 6.67296
      vertex 9.54214 -29.7537 6.13236
      vertex 9.54214 29.7537 6.13236
    endloop
  endfacet
  facet normal 0.281733 0 0.959493
    outer loop
      vertex 9.54214 -29.7537 6.13236
      vertex 7.70101 29.7537 6.67296
      vertex 7.70101 -29.7537 6.67296
    endloop
  endfacet
  facet normal 0.75575 -0 0.654861
    outer loop
      vertex 11.1564 -29.7537 5.09495
      vertex 12.413 29.7537 3.64477
      vertex 11.1564 29.7537 5.09495
    endloop
  endfacet
  facet normal 0.75575 0 0.654861
    outer loop
      vertex 12.413 29.7537 3.64477
      vertex 11.1564 -29.7537 5.09495
      vertex 12.413 -29.7537 3.64477
    endloop
  endfacet
  facet normal -0.909632 0 0.415415
    outer loop
      vertex -13.2101 -29.7537 1.89932
      vertex -12.413 29.7537 3.64477
      vertex -13.2101 29.7537 1.89932
    endloop
  endfacet
  facet normal -0.909632 0 0.415415
    outer loop
      vertex -12.413 29.7537 3.64477
      vertex -13.2101 -29.7537 1.89932
      vertex -12.413 -29.7537 3.64477
    endloop
  endfacet
  facet normal 0.540641 0 0.841254
    outer loop
      vertex 9.54214 29.7537 6.13236
      vertex 11.1564 -29.7537 5.09495
      vertex 11.1564 29.7537 5.09495
    endloop
  endfacet
  facet normal 0.540641 0 0.841254
    outer loop
      vertex 11.1564 -29.7537 5.09495
      vertex 9.54214 29.7537 6.13236
      vertex 9.54214 -29.7537 6.13236
    endloop
  endfacet
  facet normal -1 0 0
    outer loop
      vertex -6.74158 -29.7537 6.67296
      vertex -6.74158 29.7537 14.0225
      vertex -6.74158 29.7537 6.67296
    endloop
  endfacet
  facet normal -1 -0 0
    outer loop
      vertex -6.74158 29.7537 14.0225
      vertex -6.74158 -29.7537 6.67296
      vertex -6.74158 -29.7537 14.0225
    endloop
  endfacet
  facet normal 1 -0 0
    outer loop
      vertex 6.74158 -29.7537 14.0225
      vertex 6.74158 29.7537 6.67296
      vertex 6.74158 29.7537 14.0225
    endloop
  endfacet
  facet normal 1 0 0
    outer loop
      vertex 6.74158 29.7537 6.67296
      vertex 6.74158 -29.7537 14.0225
      vertex 6.74158 -29.7537 6.67296
    endloop
  endfacet
  facet normal 0 0 -1
    outer loop
      vertex -13.4832 -29.7537 0
      vertex 13.4832 29.7537 0
      vertex 13.4832 -29.7537 0
    endloop
  endfacet
  facet normal -0 0 -1
    outer loop
      vertex 13.4832 29.7537 0
      vertex -13.4832 -29.7537 0
      vertex -13.4832 29.7537 0
    endloop
  endfacet
  facet normal -0.994522 -0.00911027 -0.104131
    outer loop
      vertex 14 -29.7537 45.2232
      vertex 13.6941 29.7537 42.9389
      vertex 14 29.7537 40.017
    endloop
  endfacet
  facet normal -0.994522 -0.00911027 -0.104131
    outer loop
      vertex 13.6941 29.7537 42.9389
      vertex 14 -29.7537 45.2232
      vertex 13.6941 -29.7537 48.1451
    endloop
  endfacet
  facet normal 0.994522 -0.00911027 -0.104131
    outer loop
      vertex -14 -29.7537 45.2232
      vertex -13.6941 29.7537 42.9389
      vertex -13.6941 -29.7537 48.1451
    endloop
  endfacet
  facet normal 0.994522 -0.00911027 -0.104131
    outer loop
      vertex -13.6941 29.7537 42.9389
      vertex -14 -29.7537 45.2232
      vertex -14 29.7537 40.017
    endloop
  endfacet
  facet normal -0 0.0871557 0.996195
    outer loop
      vertex -1.4634 29.7537 26.0405
      vertex 1.4634 -29.7537 31.2467
      vertex 1.4634 29.7537 26.0405
    endloop
  endfacet
  facet normal 0 0.0871557 0.996195
    outer loop
      vertex 1.4634 -29.7537 31.2467
      vertex -1.4634 29.7537 26.0405
      vertex -1.4634 -29.7537 31.2467
    endloop
  endfacet
  facet normal 0.743145 -0.0583186 -0.666584
    outer loop
      vertex -11.3262 -29.7537 53.4836
      vertex -10.6787 29.7537 48.9993
      vertex -10.6787 -29.7537 54.2056
    endloop
  endfacet
  facet normal 0.743145 -0.0583186 -0.666584
    outer loop
      vertex -10.6787 29.7537 48.9993
      vertex -11.3262 -29.7537 53.4836
      vertex -11.3262 29.7537 48.2774
    endloop
  endfacet
  facet normal -0.951056 0.0269326 0.307841
    outer loop
      vertex 12.7896 -29.7537 39.5071
      vertex 13.6941 29.7537 37.0951
      vertex 12.7896 29.7537 34.3009
    endloop
  endfacet
  facet normal -0.951056 0.0269326 0.307841
    outer loop
      vertex 13.6941 29.7537 37.0951
      vertex 12.7896 -29.7537 39.5071
      vertex 13.6941 -29.7537 42.3013
    endloop
  endfacet
  facet normal -0.866026 -0.0435778 -0.498097
    outer loop
      vertex 12.7896 -29.7537 50.9393
      vertex 11.3262 29.7537 48.2774
      vertex 12.7896 29.7537 45.733
    endloop
  endfacet
  facet normal -0.866026 -0.0435778 -0.498097
    outer loop
      vertex 11.3262 29.7537 48.2774
      vertex 12.7896 -29.7537 50.9393
      vertex 11.3262 -29.7537 53.4836
    endloop
  endfacet
  facet normal -0.951056 -0.0269326 -0.307841
    outer loop
      vertex 13.6941 -29.7537 48.1451
      vertex 12.7896 29.7537 45.733
      vertex 13.6941 29.7537 42.9389
    endloop
  endfacet
  facet normal -0.951056 -0.0269326 -0.307841
    outer loop
      vertex 12.7896 29.7537 45.733
      vertex 13.6941 -29.7537 48.1451
      vertex 12.7896 -29.7537 50.9393
    endloop
  endfacet
  facet normal -0.743145 -0.0583186 -0.666584
    outer loop
      vertex 11.3262 -29.7537 53.4836
      vertex 10.6787 29.7537 48.9993
      vertex 11.3262 29.7537 48.2774
    endloop
  endfacet
  facet normal -0.743145 -0.0583186 -0.666584
    outer loop
      vertex 10.6787 29.7537 48.9993
      vertex 11.3262 -29.7537 53.4836
      vertex 10.6787 -29.7537 54.2056
    endloop
  endfacet
  facet normal 0.866026 -0.0435778 -0.498097
    outer loop
      vertex -12.7896 -29.7537 50.9393
      vertex -11.3262 29.7537 48.2774
      vertex -11.3262 -29.7537 53.4836
    endloop
  endfacet
  facet normal 0.866026 -0.0435778 -0.498097
    outer loop
      vertex -11.3262 29.7537 48.2774
      vertex -12.7896 -29.7537 50.9393
      vertex -12.7896 29.7537 45.733
    endloop
  endfacet
  facet normal 0.951056 -0.0269326 -0.307841
    outer loop
      vertex -13.6941 -29.7537 48.1451
      vertex -12.7896 29.7537 45.733
      vertex -12.7896 -29.7537 50.9393
    endloop
  endfacet
  facet normal 0.951056 -0.0269326 -0.307841
    outer loop
      vertex -12.7896 29.7537 45.733
      vertex -13.6941 -29.7537 48.1451
      vertex -13.6941 29.7537 42.9389
    endloop
  endfacet
  facet normal -0.994522 0.00911028 0.104131
    outer loop
      vertex 13.6941 -29.7537 42.3013
      vertex 14 29.7537 40.017
      vertex 13.6941 29.7537 37.0951
    endloop
  endfacet
  facet normal -0.994522 0.00911028 0.104131
    outer loop
      vertex 14 29.7537 40.017
      vertex 13.6941 -29.7537 42.3013
      vertex 14 -29.7537 45.2232
    endloop
  endfacet
  facet normal -0.866026 0.0435778 0.498097
    outer loop
      vertex 11.3262 -29.7537 36.9628
      vertex 12.7896 29.7537 34.3009
      vertex 11.3262 29.7537 31.7565
    endloop
  endfacet
  facet normal -0.866026 0.0435778 0.498097
    outer loop
      vertex 12.7896 29.7537 34.3009
      vertex 11.3262 -29.7537 36.9628
      vertex 12.7896 -29.7537 39.5071
    endloop
  endfacet
  facet normal -0.587785 0.0705105 0.805938
    outer loop
      vertex 7 29.7537 27.8463
      vertex 9.36783 -29.7537 34.7794
      vertex 9.36783 29.7537 29.5732
    endloop
  endfacet
  facet normal -0.587785 0.0705105 0.805939
    outer loop
      vertex 9.36783 -29.7537 34.7794
      vertex 7 29.7537 27.8463
      vertex 7 -29.7537 33.0525
    endloop
  endfacet
  facet normal 0.207912 0.0852512 0.974425
    outer loop
      vertex -4.32624 29.7537 26.6513
      vertex -1.4634 -29.7537 31.2467
      vertex -1.4634 29.7537 26.0405
    endloop
  endfacet
  facet normal 0.207912 0.0852512 0.974425
    outer loop
      vertex -1.4634 -29.7537 31.2467
      vertex -4.32624 29.7537 26.6513
      vertex -4.32624 -29.7537 31.8576
    endloop
  endfacet
  facet normal 0.743145 0.0583186 0.666584
    outer loop
      vertex -9.36783 -29.7537 34.7794
      vertex -11.3262 29.7537 31.7565
      vertex -11.3262 -29.7537 36.9628
    endloop
  endfacet
  facet normal 0.743145 0.0583186 0.666584
    outer loop
      vertex -11.3262 29.7537 31.7565
      vertex -9.36783 -29.7537 34.7794
      vertex -9.36783 29.7537 29.5732
    endloop
  endfacet
  facet normal 0.866026 0.0435778 0.498097
    outer loop
      vertex -11.3262 -29.7537 36.9628
      vertex -12.7896 29.7537 34.3009
      vertex -12.7896 -29.7537 39.5071
    endloop
  endfacet
  facet normal 0.866026 0.0435778 0.498097
    outer loop
      vertex -12.7896 29.7537 34.3009
      vertex -11.3262 -29.7537 36.9628
      vertex -11.3262 29.7537 31.7565
    endloop
  endfacet
  facet normal 0.951056 0.0269326 0.307841
    outer loop
      vertex -12.7896 -29.7537 39.5071
      vertex -13.6941 29.7537 37.0951
      vertex -13.6941 -29.7537 42.3013
    endloop
  endfacet
  facet normal 0.951056 0.0269326 0.307841
    outer loop
      vertex -13.6941 29.7537 37.0951
      vertex -12.7896 -29.7537 39.5071
      vertex -12.7896 29.7537 34.3009
    endloop
  endfacet
  facet normal 0.994522 0.00911028 0.104131
    outer loop
      vertex -13.6941 -29.7537 42.3013
      vertex -14 29.7537 40.017
      vertex -14 -29.7537 45.2232
    endloop
  endfacet
  facet normal 0.994522 0.00911028 0.104131
    outer loop
      vertex -14 29.7537 40.017
      vertex -13.6941 -29.7537 42.3013
      vertex -13.6941 29.7537 37.0951
    endloop
  endfacet
  facet normal -0.406737 0.0796208 0.910069
    outer loop
      vertex 4.32624 29.7537 26.6513
      vertex 7 -29.7537 33.0525
      vertex 7 29.7537 27.8463
    endloop
  endfacet
  facet normal -0.406737 0.0796207 0.910069
    outer loop
      vertex 7 -29.7537 33.0525
      vertex 4.32624 29.7537 26.6513
      vertex 4.32624 -29.7537 31.8576
    endloop
  endfacet
  facet normal -0.207912 0.0852512 0.974425
    outer loop
      vertex 1.4634 29.7537 26.0405
      vertex 4.32624 -29.7537 31.8576
      vertex 4.32624 29.7537 26.6513
    endloop
  endfacet
  facet normal -0.207912 0.0852512 0.974425
    outer loop
      vertex 4.32624 -29.7537 31.8576
      vertex 1.4634 29.7537 26.0405
      vertex 1.4634 -29.7537 31.2467
    endloop
  endfacet
  facet normal -0.743145 0.0583186 0.666584
    outer loop
      vertex 9.36783 -29.7537 34.7794
      vertex 11.3262 29.7537 31.7565
      vertex 9.36783 29.7537 29.5732
    endloop
  endfacet
  facet normal -0.743145 0.0583186 0.666584
    outer loop
      vertex 11.3262 29.7537 31.7565
      vertex 9.36783 -29.7537 34.7794
      vertex 11.3262 -29.7537 36.9628
    endloop
  endfacet
  facet normal 0.406737 0.0796207 0.910069
    outer loop
      vertex -7 29.7537 27.8463
      vertex -4.32624 -29.7537 31.8576
      vertex -4.32624 29.7537 26.6513
    endloop
  endfacet
  facet normal 0.406737 0.0796207 0.910069
    outer loop
      vertex -4.32624 -29.7537 31.8576
      vertex -7 29.7537 27.8463
      vertex -7 -29.7537 33.0525
    endloop
  endfacet
  facet normal 0.587785 0.0705105 0.805938
    outer loop
      vertex -9.36783 29.7537 29.5732
      vertex -7 -29.7537 33.0525
      vertex -7 29.7537 27.8463
    endloop
  endfacet
  facet normal 0.587785 0.0705105 0.805939
    outer loop
      vertex -7 -29.7537 33.0525
      vertex -9.36783 29.7537 29.5732
      vertex -9.36783 -29.7537 34.7794
    endloop
  endfacet
  facet normal 0.994522 0.0091105 0.104133
    outer loop
      vertex 19.5907 -29.7537 43.8614
      vertex 19.563 29.7537 38.9202
      vertex 19.563 -29.7537 44.1265
    endloop
  endfacet
  facet normal 0.994522 0.00911031 0.104131
    outer loop
      vertex 19.563 29.7537 38.9202
      vertex 19.5907 -29.7537 43.8614
      vertex 19.9683 29.7537 35.0491
    endloop
  endfacet
  facet normal 0.994522 0.00911028 0.104131
    outer loop
      vertex 20 -29.7537 39.9523
      vertex 19.9683 29.7537 35.0491
      vertex 19.5907 -29.7537 43.8614
    endloop
  endfacet
  facet normal 0.994522 0.00911019 0.10413
    outer loop
      vertex 19.9683 29.7537 35.0491
      vertex 20 -29.7537 39.9523
      vertex 20 29.7537 34.7461
    endloop
  endfacet
  facet normal -0.866026 -0.0435779 -0.498097
    outer loop
      vertex -18.1058 -29.7537 31.4994
      vertex -18.2709 29.7537 26.5803
      vertex -16.3009 29.7537 23.1551
    endloop
  endfacet
  facet normal -0.866025 -0.043578 -0.498099
    outer loop
      vertex -18.2709 29.7537 26.5803
      vertex -18.1058 -29.7537 31.4994
      vertex -18.2709 -29.7537 31.7865
    endloop
  endfacet
  facet normal -0.587786 -0.0705104 -0.805938
    outer loop
      vertex -10.3041 -29.7537 22.7875
      vertex -10 29.7537 17.3594
      vertex -10 -29.7537 22.5657
    endloop
  endfacet
  facet normal -0.587785 -0.0705105 -0.805938
    outer loop
      vertex -10 29.7537 17.3594
      vertex -10.3041 -29.7537 22.7875
      vertex -13.2022 29.7537 19.6949
    endloop
  endfacet
  facet normal -0.951057 -0.0269325 -0.307838
    outer loop
      vertex -18.372 -29.7537 32.0988
      vertex -19.563 29.7537 30.572
      vertex -19.4768 29.7537 30.306
    endloop
  endfacet
  facet normal -0.951057 -0.0269326 -0.307841
    outer loop
      vertex -19.563 29.7537 30.572
      vertex -18.372 -29.7537 32.0988
      vertex -19.563 -29.7537 35.7782
    endloop
  endfacet
  facet normal 0.951057 0.0269326 0.307841
    outer loop
      vertex 18.3464 -29.7537 47.8849
      vertex 18.2709 29.7537 42.9119
      vertex 18.2709 -29.7537 48.1181
    endloop
  endfacet
  facet normal 0.951057 0.0269326 0.307841
    outer loop
      vertex 18.2709 29.7537 42.9119
      vertex 18.3464 -29.7537 47.8849
      vertex 19.4624 29.7537 39.2309
    endloop
  endfacet
  facet normal -0.406737 -0.0796207 -0.910069
    outer loop
      vertex -10 -29.7537 22.5657
      vertex -6.74158 29.7537 15.9032
      vertex -6.74158 -29.7537 21.1094
    endloop
  endfacet
  facet normal -0.406737 -0.0796207 -0.910069
    outer loop
      vertex -6.74158 29.7537 15.9032
      vertex -10 -29.7537 22.5657
      vertex -10 29.7537 17.3594
    endloop
  endfacet
  facet normal 0.994522 -0.00911015 -0.10413
    outer loop
      vertex 19.97 -29.7537 39.6654
      vertex 20 29.7537 34.7461
      vertex 20 -29.7537 39.9523
    endloop
  endfacet
  facet normal 0.994522 -0.00911027 -0.104131
    outer loop
      vertex 20 29.7537 34.7461
      vertex 19.97 -29.7537 39.6654
      vertex 19.5924 29.7537 30.853
    endloop
  endfacet
  facet normal -0.866024 0.0435779 0.4981
    outer loop
      vertex -18.1499 -29.7537 48.3285
      vertex -16.1803 29.7537 46.5467
      vertex -16.3614 29.7537 46.2319
    endloop
  endfacet
  facet normal -0.866025 0.0435779 0.498097
    outer loop
      vertex -16.1803 29.7537 46.5467
      vertex -18.1499 -29.7537 48.3285
      vertex -16.1803 -29.7537 51.7529
    endloop
  endfacet
  facet normal 0.951057 0.0269326 0.307841
    outer loop
      vertex 19.563 -29.7537 44.1265
      vertex 19.4624 29.7537 39.2309
      vertex 18.3464 -29.7537 47.8849
    endloop
  endfacet
  facet normal 0.951057 0.0269325 0.30784
    outer loop
      vertex 19.4624 29.7537 39.2309
      vertex 19.563 -29.7537 44.1265
      vertex 19.563 29.7537 38.9202
    endloop
  endfacet
  facet normal 0.743147 0.0583182 0.666582
    outer loop
      vertex 13.9804 -18.4565 53.2172
      vertex 16.1803 29.7537 46.5467
      vertex 15.936 29.7537 46.8192
    endloop
  endfacet
  facet normal 0.743145 0.0583186 0.666584
    outer loop
      vertex 16.1803 -29.7537 51.7529
      vertex 13.9804 -18.4565 53.2172
      vertex 13.9804 -29.7537 54.2056
    endloop
  endfacet
  facet normal 0.743145 0.0583186 0.666584
    outer loop
      vertex 13.9804 -18.4565 53.2172
      vertex 16.1803 -29.7537 51.7529
      vertex 16.1803 29.7537 46.5467
    endloop
  endfacet
  facet normal 0.994522 -0.00911032 -0.104131
    outer loop
      vertex 19.563 -29.7537 35.7782
      vertex 19.5924 29.7537 30.853
      vertex 19.97 -29.7537 39.6654
    endloop
  endfacet
  facet normal 0.994522 -0.00911052 -0.104134
    outer loop
      vertex 19.5924 29.7537 30.853
      vertex 19.563 -29.7537 35.7782
      vertex 19.563 29.7537 30.572
    endloop
  endfacet
  facet normal 0.866027 0.0435778 0.498095
    outer loop
      vertex 18.2709 -29.7537 48.1181
      vertex 16.3614 29.7537 46.2319
      vertex 18.1499 -29.7537 48.3285
    endloop
  endfacet
  facet normal 0.866026 0.0435778 0.498097
    outer loop
      vertex 16.3614 29.7537 46.2319
      vertex 18.2709 -29.7537 48.1181
      vertex 18.2709 29.7537 42.9119
    endloop
  endfacet
  facet normal 0.866025 0.0435779 0.498097
    outer loop
      vertex 18.1499 -29.7537 48.3285
      vertex 16.1803 29.7537 46.5467
      vertex 16.1803 -29.7537 51.7529
    endloop
  endfacet
  facet normal 0.866024 0.0435779 0.4981
    outer loop
      vertex 16.1803 29.7537 46.5467
      vertex 18.1499 -29.7537 48.3285
      vertex 16.3614 29.7537 46.2319
    endloop
  endfacet
  facet normal 0.743145 0.0583186 0.666584
    outer loop
      vertex 13.9804 29.7537 48.9993
      vertex 13.9804 -18.4565 53.2172
      vertex 15.936 29.7537 46.8192
    endloop
  endfacet
  facet normal 0.406737 -0.0796207 -0.910069
    outer loop
      vertex 6.74158 -29.7537 21.1094
      vertex 10 29.7537 17.3594
      vertex 10 -29.7537 22.5657
    endloop
  endfacet
  facet normal 0.406737 -0.0796207 -0.910069
    outer loop
      vertex 10 29.7537 17.3594
      vertex 6.74158 -29.7537 21.1094
      vertex 6.74158 29.7537 15.9032
    endloop
  endfacet
  facet normal -0.866024 -0.043578 -0.498099
    outer loop
      vertex -16.1803 -29.7537 28.1517
      vertex -16.3009 29.7537 23.1551
      vertex -16.1803 29.7537 22.9455
    endloop
  endfacet
  facet normal -0.866026 -0.0435779 -0.498097
    outer loop
      vertex -16.3009 29.7537 23.1551
      vertex -16.1803 -29.7537 28.1517
      vertex -18.1058 -29.7537 31.4994
    endloop
  endfacet
  facet normal -0.743145 -0.0583186 -0.666584
    outer loop
      vertex -13.3826 -29.7537 25.0327
      vertex -16.0203 29.7537 22.7671
      vertex -13.3826 29.7537 19.8264
    endloop
  endfacet
  facet normal -0.743143 -0.0583186 -0.666586
    outer loop
      vertex -16.0203 29.7537 22.7671
      vertex -13.3826 -29.7537 25.0327
      vertex -13.6253 -29.7537 25.3033
    endloop
  endfacet
  facet normal -0.994522 0.00911019 0.10413
    outer loop
      vertex -20 -29.7537 39.9523
      vertex -19.9683 29.7537 35.0491
      vertex -20 29.7537 34.7461
    endloop
  endfacet
  facet normal -0.994522 0.00911028 0.104131
    outer loop
      vertex -19.9683 29.7537 35.0491
      vertex -20 -29.7537 39.9523
      vertex -19.5907 -29.7537 43.8614
    endloop
  endfacet
  facet normal 0.866026 -0.0435779 -0.498097
    outer loop
      vertex 16.1803 -29.7537 28.1517
      vertex 16.3009 29.7537 23.1551
      vertex 18.1058 -29.7537 31.4994
    endloop
  endfacet
  facet normal 0.866024 -0.043578 -0.498099
    outer loop
      vertex 16.3009 29.7537 23.1551
      vertex 16.1803 -29.7537 28.1517
      vertex 16.1803 29.7537 22.9455
    endloop
  endfacet
  facet normal 0.587786 -0.0705104 -0.805938
    outer loop
      vertex 10 29.7537 17.3594
      vertex 10.3041 -29.7537 22.7875
      vertex 10 -29.7537 22.5657
    endloop
  endfacet
  facet normal 0.587785 -0.0705105 -0.805938
    outer loop
      vertex 10.3041 -29.7537 22.7875
      vertex 10 29.7537 17.3594
      vertex 13.2022 29.7537 19.6949
    endloop
  endfacet
  facet normal 0.743145 -0.0583186 -0.666584
    outer loop
      vertex 13.6253 -29.7537 25.3033
      vertex 16.1803 29.7537 22.9455
      vertex 16.1803 -29.7537 28.1517
    endloop
  endfacet
  facet normal 0.743142 -0.0583186 -0.666587
    outer loop
      vertex 16.1803 29.7537 22.9455
      vertex 13.6253 -29.7537 25.3033
      vertex 16.0203 29.7537 22.7671
    endloop
  endfacet
  facet normal -0.587785 -0.0705105 -0.805938
    outer loop
      vertex -13.3826 -29.7537 25.0327
      vertex -13.2022 29.7537 19.6949
      vertex -10.3041 -29.7537 22.7875
    endloop
  endfacet
  facet normal -0.587788 -0.0705103 -0.805937
    outer loop
      vertex -13.2022 29.7537 19.6949
      vertex -13.3826 -29.7537 25.0327
      vertex -13.3826 29.7537 19.8264
    endloop
  endfacet
  facet normal -0.994522 0.00911031 0.104131
    outer loop
      vertex -19.5907 -29.7537 43.8614
      vertex -19.563 29.7537 38.9202
      vertex -19.9683 29.7537 35.0491
    endloop
  endfacet
  facet normal -0.994522 0.0091105 0.104133
    outer loop
      vertex -19.563 29.7537 38.9202
      vertex -19.5907 -29.7537 43.8614
      vertex -19.563 -29.7537 44.1265
    endloop
  endfacet
  facet normal -0.951057 -0.0269326 -0.307841
    outer loop
      vertex -18.2709 -29.7537 31.7865
      vertex -19.4768 29.7537 30.306
      vertex -18.2709 29.7537 26.5803
    endloop
  endfacet
  facet normal -0.951056 -0.0269326 -0.307841
    outer loop
      vertex -19.4768 29.7537 30.306
      vertex -18.2709 -29.7537 31.7865
      vertex -18.372 -29.7537 32.0988
    endloop
  endfacet
  facet normal -0.743147 0.0583182 0.666582
    outer loop
      vertex -16.1803 29.7537 46.5467
      vertex -13.9804 -18.4565 53.2172
      vertex -15.936 29.7537 46.8192
    endloop
  endfacet
  facet normal -0.743145 0.0583186 0.666584
    outer loop
      vertex -16.1803 -29.7537 51.7529
      vertex -13.9804 -18.4565 53.2172
      vertex -16.1803 29.7537 46.5467
    endloop
  endfacet
  facet normal -0.743145 0.0583186 0.666584
    outer loop
      vertex -13.9804 -18.4565 53.2172
      vertex -16.1803 -29.7537 51.7529
      vertex -13.9804 -29.7537 54.2056
    endloop
  endfacet
  facet normal -0.743145 0.0583186 0.666584
    outer loop
      vertex -13.9804 29.7537 48.9993
      vertex -15.936 29.7537 46.8192
      vertex -13.9804 -18.4565 53.2172
    endloop
  endfacet
  facet normal 0.951056 -0.0269326 -0.307841
    outer loop
      vertex 18.2709 -29.7537 31.7865
      vertex 19.4768 29.7537 30.306
      vertex 18.372 -29.7537 32.0988
    endloop
  endfacet
  facet normal 0.951057 -0.0269326 -0.307841
    outer loop
      vertex 19.4768 29.7537 30.306
      vertex 18.2709 -29.7537 31.7865
      vertex 18.2709 29.7537 26.5803
    endloop
  endfacet
  facet normal 0.866025 -0.043578 -0.498099
    outer loop
      vertex 18.1058 -29.7537 31.4994
      vertex 18.2709 29.7537 26.5803
      vertex 18.2709 -29.7537 31.7865
    endloop
  endfacet
  facet normal 0.866026 -0.0435779 -0.498097
    outer loop
      vertex 18.2709 29.7537 26.5803
      vertex 18.1058 -29.7537 31.4994
      vertex 16.3009 29.7537 23.1551
    endloop
  endfacet
  facet normal 0.951057 -0.0269326 -0.307841
    outer loop
      vertex 18.372 -29.7537 32.0988
      vertex 19.563 29.7537 30.572
      vertex 19.563 -29.7537 35.7782
    endloop
  endfacet
  facet normal 0.951057 -0.0269325 -0.307838
    outer loop
      vertex 19.563 29.7537 30.572
      vertex 18.372 -29.7537 32.0988
      vertex 19.4768 29.7537 30.306
    endloop
  endfacet
  facet normal 0.587788 -0.0705103 -0.805937
    outer loop
      vertex 13.3826 -29.7537 25.0327
      vertex 13.2022 29.7537 19.6949
      vertex 13.3826 29.7537 19.8264
    endloop
  endfacet
  facet normal 0.587785 -0.0705105 -0.805938
    outer loop
      vertex 13.2022 29.7537 19.6949
      vertex 13.3826 -29.7537 25.0327
      vertex 10.3041 -29.7537 22.7875
    endloop
  endfacet
  facet normal 0.743143 -0.0583186 -0.666586
    outer loop
      vertex 13.3826 -29.7537 25.0327
      vertex 16.0203 29.7537 22.7671
      vertex 13.6253 -29.7537 25.3033
    endloop
  endfacet
  facet normal 0.743145 -0.0583186 -0.666584
    outer loop
      vertex 16.0203 29.7537 22.7671
      vertex 13.3826 -29.7537 25.0327
      vertex 13.3826 29.7537 19.8264
    endloop
  endfacet
  facet normal -0.994522 -0.00911027 -0.104131
    outer loop
      vertex -19.97 -29.7537 39.6654
      vertex -20 29.7537 34.7461
      vertex -19.5924 29.7537 30.853
    endloop
  endfacet
  facet normal -0.994522 -0.00911015 -0.10413
    outer loop
      vertex -20 29.7537 34.7461
      vertex -19.97 -29.7537 39.6654
      vertex -20 -29.7537 39.9523
    endloop
  endfacet
  facet normal -0.994522 -0.00911052 -0.104134
    outer loop
      vertex -19.563 -29.7537 35.7782
      vertex -19.5924 29.7537 30.853
      vertex -19.563 29.7537 30.572
    endloop
  endfacet
  facet normal -0.994522 -0.00911032 -0.104131
    outer loop
      vertex -19.5924 29.7537 30.853
      vertex -19.563 -29.7537 35.7782
      vertex -19.97 -29.7537 39.6654
    endloop
  endfacet
  facet normal -0.743142 -0.0583186 -0.666587
    outer loop
      vertex -13.6253 -29.7537 25.3033
      vertex -16.1803 29.7537 22.9455
      vertex -16.0203 29.7537 22.7671
    endloop
  endfacet
  facet normal -0.743145 -0.0583186 -0.666584
    outer loop
      vertex -16.1803 29.7537 22.9455
      vertex -13.6253 -29.7537 25.3033
      vertex -16.1803 -29.7537 28.1517
    endloop
  endfacet
  facet normal -0.951057 0.0269326 0.307841
    outer loop
      vertex -18.3464 -29.7537 47.8849
      vertex -18.2709 29.7537 42.9119
      vertex -19.4624 29.7537 39.2309
    endloop
  endfacet
  facet normal -0.951057 0.0269326 0.307841
    outer loop
      vertex -18.2709 29.7537 42.9119
      vertex -18.3464 -29.7537 47.8849
      vertex -18.2709 -29.7537 48.1181
    endloop
  endfacet
  facet normal -0.866026 0.0435778 0.498097
    outer loop
      vertex -18.2709 -29.7537 48.1181
      vertex -16.3614 29.7537 46.2319
      vertex -18.2709 29.7537 42.9119
    endloop
  endfacet
  facet normal -0.866027 0.0435778 0.498095
    outer loop
      vertex -16.3614 29.7537 46.2319
      vertex -18.2709 -29.7537 48.1181
      vertex -18.1499 -29.7537 48.3285
    endloop
  endfacet
  facet normal -0.951057 0.0269325 0.30784
    outer loop
      vertex -19.563 -29.7537 44.1265
      vertex -19.4624 29.7537 39.2309
      vertex -19.563 29.7537 38.9202
    endloop
  endfacet
  facet normal -0.951057 0.0269326 0.307841
    outer loop
      vertex -19.4624 29.7537 39.2309
      vertex -19.563 -29.7537 44.1265
      vertex -18.3464 -29.7537 47.8849
    endloop
  endfacet
  facet normal -1 0 0
    outer loop
      vertex -6.74158 -29.7537 14.0225
      vertex -6.74158 29.7537 15.9032
      vertex -6.74158 29.7537 14.0225
    endloop
  endfacet
  facet normal -1 0 0
    outer loop
      vertex -6.74158 -29.7537 14.0225
      vertex -6.74158 -29.7537 21.1094
      vertex -6.74158 29.7537 15.9032
    endloop
  endfacet
  facet normal -1 0 0
    outer loop
      vertex -6.74158 -29.7537 21.1094
      vertex -6.74158 -29.7537 14.0225
      vertex -6.74158 -29.7537 12.3087
    endloop
  endfacet
  facet normal 1 0 0
    outer loop
      vertex 6.74158 29.7537 15.9032
      vertex 6.74158 -29.7537 14.0225
      vertex 6.74158 29.7537 14.0225
    endloop
  endfacet
  facet normal 1 0 0
    outer loop
      vertex 6.74158 -29.7537 21.1094
      vertex 6.74158 -29.7537 14.0225
      vertex 6.74158 29.7537 15.9032
    endloop
  endfacet
  facet normal 1 0 0
    outer loop
      vertex 6.74158 -29.7537 12.3087
      vertex 6.74158 -29.7537 14.0225
      vertex 6.74158 -29.7537 21.1094
    endloop
  endfacet
  facet normal 0 -1 0
    outer loop
      vertex -13.9804 -29.7537 54.2056
      vertex -11.3262 -29.7537 53.4836
      vertex -10.6787 -29.7537 54.2056
    endloop
  endfacet
  facet normal 0 -1 0
    outer loop
      vertex -12.7896 -29.7537 50.9393
      vertex -13.9804 -29.7537 54.2056
      vertex -16.1803 -29.7537 51.7529
    endloop
  endfacet
  facet normal 0 -1 0
    outer loop
      vertex -13.9804 -29.7537 54.2056
      vertex -12.7896 -29.7537 50.9393
      vertex -11.3262 -29.7537 53.4836
    endloop
  endfacet
  facet normal 0 -1 0
    outer loop
      vertex -13.6941 -29.7537 48.1451
      vertex -16.1803 -29.7537 51.7529
      vertex -18.1499 -29.7537 48.3285
    endloop
  endfacet
  facet normal 0 -1 0
    outer loop
      vertex -16.1803 -29.7537 51.7529
      vertex -13.6941 -29.7537 48.1451
      vertex -12.7896 -29.7537 50.9393
    endloop
  endfacet
  facet normal 0 -1 0
    outer loop
      vertex -18.3464 -29.7537 47.8849
      vertex -18.1499 -29.7537 48.3285
      vertex -18.2709 -29.7537 48.1181
    endloop
  endfacet
  facet normal 0 -1 -0
    outer loop
      vertex -18.1499 -29.7537 48.3285
      vertex -18.3464 -29.7537 47.8849
      vertex -13.6941 -29.7537 48.1451
    endloop
  endfacet
  facet normal 0 -1 0
    outer loop
      vertex -18.3464 -29.7537 47.8849
      vertex -14 -29.7537 45.2232
      vertex -13.6941 -29.7537 48.1451
    endloop
  endfacet
  facet normal 0 -1 0
    outer loop
      vertex -19.563 -29.7537 44.1265
      vertex -14 -29.7537 45.2232
      vertex -18.3464 -29.7537 47.8849
    endloop
  endfacet
  facet normal 0 -1 0
    outer loop
      vertex -19.5907 -29.7537 43.8614
      vertex -14 -29.7537 45.2232
      vertex -19.563 -29.7537 44.1265
    endloop
  endfacet
  facet normal 0 -1 0
    outer loop
      vertex -19.5907 -29.7537 43.8614
      vertex -13.6941 -29.7537 42.3013
      vertex -14 -29.7537 45.2232
    endloop
  endfacet
  facet normal 0 -1 0
    outer loop
      vertex -20 -29.7537 39.9523
      vertex -13.6941 -29.7537 42.3013
      vertex -19.5907 -29.7537 43.8614
    endloop
  endfacet
  facet normal 0 -1 0
    outer loop
      vertex -19.97 -29.7537 39.6654
      vertex -13.6941 -29.7537 42.3013
      vertex -20 -29.7537 39.9523
    endloop
  endfacet
  facet normal 0 -1 0
    outer loop
      vertex -19.97 -29.7537 39.6654
      vertex -12.7896 -29.7537 39.5071
      vertex -13.6941 -29.7537 42.3013
    endloop
  endfacet
  facet normal 0 -1 0
    outer loop
      vertex -19.563 -29.7537 35.7782
      vertex -12.7896 -29.7537 39.5071
      vertex -19.97 -29.7537 39.6654
    endloop
  endfacet
  facet normal 0 -1 -0
    outer loop
      vertex -12.7896 -29.7537 39.5071
      vertex -19.563 -29.7537 35.7782
      vertex -11.3262 -29.7537 36.9628
    endloop
  endfacet
  facet normal 0 -1 0
    outer loop
      vertex -18.372 -29.7537 32.0988
      vertex -11.3262 -29.7537 36.9628
      vertex -19.563 -29.7537 35.7782
    endloop
  endfacet
  facet normal 0 -1 0
    outer loop
      vertex -18.1058 -29.7537 31.4994
      vertex -11.3262 -29.7537 36.9628
      vertex -18.372 -29.7537 32.0988
    endloop
  endfacet
  facet normal 0 -1 -0
    outer loop
      vertex -11.3262 -29.7537 36.9628
      vertex -18.1058 -29.7537 31.4994
      vertex -9.36783 -29.7537 34.7794
    endloop
  endfacet
  facet normal 0 -1 0
    outer loop
      vertex -16.1803 -29.7537 28.1517
      vertex -9.36783 -29.7537 34.7794
      vertex -18.1058 -29.7537 31.4994
    endloop
  endfacet
  facet normal 0 -1 0
    outer loop
      vertex -18.1058 -29.7537 31.4994
      vertex -18.372 -29.7537 32.0988
      vertex -18.2709 -29.7537 31.7865
    endloop
  endfacet
  facet normal 0 -1 0
    outer loop
      vertex -13.6253 -29.7537 25.3033
      vertex -9.36783 -29.7537 34.7794
      vertex -16.1803 -29.7537 28.1517
    endloop
  endfacet
  facet normal 0 -1 -0
    outer loop
      vertex -9.36783 -29.7537 34.7794
      vertex -13.6253 -29.7537 25.3033
      vertex -7 -29.7537 33.0525
    endloop
  endfacet
  facet normal 0 -1 0
    outer loop
      vertex -10.3041 -29.7537 22.7875
      vertex -7 -29.7537 33.0525
      vertex -13.3826 -29.7537 25.0327
    endloop
  endfacet
  facet normal 0 -1 0
    outer loop
      vertex -13.3826 -29.7537 25.0327
      vertex -7 -29.7537 33.0525
      vertex -13.6253 -29.7537 25.3033
    endloop
  endfacet
  facet normal 0 -1 0
    outer loop
      vertex 11.3262 -29.7537 53.4836
      vertex 13.9804 -29.7537 54.2056
      vertex 10.6787 -29.7537 54.2056
    endloop
  endfacet
  facet normal 0 -1 0
    outer loop
      vertex 12.7896 -29.7537 50.9393
      vertex 13.9804 -29.7537 54.2056
      vertex 11.3262 -29.7537 53.4836
    endloop
  endfacet
  facet normal 0 -1 -0
    outer loop
      vertex 13.9804 -29.7537 54.2056
      vertex 12.7896 -29.7537 50.9393
      vertex 16.1803 -29.7537 51.7529
    endloop
  endfacet
  facet normal 0 -1 0
    outer loop
      vertex 13.6941 -29.7537 48.1451
      vertex 16.1803 -29.7537 51.7529
      vertex 12.7896 -29.7537 50.9393
    endloop
  endfacet
  facet normal 0 -1 -0
    outer loop
      vertex 16.1803 -29.7537 51.7529
      vertex 13.6941 -29.7537 48.1451
      vertex 18.1499 -29.7537 48.3285
    endloop
  endfacet
  facet normal 0 -1 0
    outer loop
      vertex 18.3464 -29.7537 47.8849
      vertex 18.1499 -29.7537 48.3285
      vertex 13.6941 -29.7537 48.1451
    endloop
  endfacet
  facet normal 0 -1 0
    outer loop
      vertex 18.1499 -29.7537 48.3285
      vertex 18.3464 -29.7537 47.8849
      vertex 18.2709 -29.7537 48.1181
    endloop
  endfacet
  facet normal 0 -1 0
    outer loop
      vertex 14 -29.7537 45.2232
      vertex 18.3464 -29.7537 47.8849
      vertex 13.6941 -29.7537 48.1451
    endloop
  endfacet
  facet normal 0 -1 0
    outer loop
      vertex 14 -29.7537 45.2232
      vertex 19.563 -29.7537 44.1265
      vertex 18.3464 -29.7537 47.8849
    endloop
  endfacet
  facet normal 0 -1 0
    outer loop
      vertex 14 -29.7537 45.2232
      vertex 19.5907 -29.7537 43.8614
      vertex 19.563 -29.7537 44.1265
    endloop
  endfacet
  facet normal 0 -1 0
    outer loop
      vertex 13.6941 -29.7537 42.3013
      vertex 19.5907 -29.7537 43.8614
      vertex 14 -29.7537 45.2232
    endloop
  endfacet
  facet normal 0 -1 0
    outer loop
      vertex 13.6941 -29.7537 42.3013
      vertex 20 -29.7537 39.9523
      vertex 19.5907 -29.7537 43.8614
    endloop
  endfacet
  facet normal 0 -1 0
    outer loop
      vertex 13.6941 -29.7537 42.3013
      vertex 19.97 -29.7537 39.6654
      vertex 20 -29.7537 39.9523
    endloop
  endfacet
  facet normal 0 -1 0
    outer loop
      vertex 12.7896 -29.7537 39.5071
      vertex 19.97 -29.7537 39.6654
      vertex 13.6941 -29.7537 42.3013
    endloop
  endfacet
  facet normal 0 -1 0
    outer loop
      vertex 19.563 -29.7537 35.7782
      vertex 12.7896 -29.7537 39.5071
      vertex 11.3262 -29.7537 36.9628
    endloop
  endfacet
  facet normal 0 -1 0
    outer loop
      vertex 12.7896 -29.7537 39.5071
      vertex 19.563 -29.7537 35.7782
      vertex 19.97 -29.7537 39.6654
    endloop
  endfacet
  facet normal 0 -1 0
    outer loop
      vertex 18.1058 -29.7537 31.4994
      vertex 11.3262 -29.7537 36.9628
      vertex 9.36783 -29.7537 34.7794
    endloop
  endfacet
  facet normal 0 -1 0
    outer loop
      vertex 13.6253 -29.7537 25.3033
      vertex 9.36783 -29.7537 34.7794
      vertex 7 -29.7537 33.0525
    endloop
  endfacet
  facet normal 0 -1 0
    outer loop
      vertex 11.3262 -29.7537 36.9628
      vertex 18.372 -29.7537 32.0988
      vertex 19.563 -29.7537 35.7782
    endloop
  endfacet
  facet normal 0 -1 0
    outer loop
      vertex 10.3041 -29.7537 22.7875
      vertex 7 -29.7537 33.0525
      vertex 4.32624 -29.7537 31.8576
    endloop
  endfacet
  facet normal 0 -1 0
    outer loop
      vertex 11.3262 -29.7537 36.9628
      vertex 18.1058 -29.7537 31.4994
      vertex 18.372 -29.7537 32.0988
    endloop
  endfacet
  facet normal 0 -1 0
    outer loop
      vertex 18.372 -29.7537 32.0988
      vertex 18.1058 -29.7537 31.4994
      vertex 18.2709 -29.7537 31.7865
    endloop
  endfacet
  facet normal 0 -1 0
    outer loop
      vertex 6.74158 -29.7537 21.1094
      vertex 4.32624 -29.7537 31.8576
      vertex 1.4634 -29.7537 31.2467
    endloop
  endfacet
  facet normal 0 -1 -0
    outer loop
      vertex -7 -29.7537 33.0525
      vertex -10.3041 -29.7537 22.7875
      vertex -4.32624 -29.7537 31.8576
    endloop
  endfacet
  facet normal 0 -1 0
    outer loop
      vertex -10 -29.7537 22.5657
      vertex -4.32624 -29.7537 31.8576
      vertex -10.3041 -29.7537 22.7875
    endloop
  endfacet
  facet normal 0 -1 0
    outer loop
      vertex 9.36783 -29.7537 34.7794
      vertex 13.6253 -29.7537 25.3033
      vertex 16.1803 -29.7537 28.1517
    endloop
  endfacet
  facet normal 0 -1 0
    outer loop
      vertex 9.36783 -29.7537 34.7794
      vertex 16.1803 -29.7537 28.1517
      vertex 18.1058 -29.7537 31.4994
    endloop
  endfacet
  facet normal 0 -1 0
    outer loop
      vertex -6.74158 -29.7537 21.1094
      vertex -4.32624 -29.7537 31.8576
      vertex -10 -29.7537 22.5657
    endloop
  endfacet
  facet normal 0 -1 -0
    outer loop
      vertex -4.32624 -29.7537 31.8576
      vertex -6.74158 -29.7537 21.1094
      vertex -1.4634 -29.7537 31.2467
    endloop
  endfacet
  facet normal 0 -1 0
    outer loop
      vertex 7 -29.7537 33.0525
      vertex 10.3041 -29.7537 22.7875
      vertex 13.3826 -29.7537 25.0327
    endloop
  endfacet
  facet normal 0 -1 0
    outer loop
      vertex 7 -29.7537 33.0525
      vertex 13.3826 -29.7537 25.0327
      vertex 13.6253 -29.7537 25.3033
    endloop
  endfacet
  facet normal 0 -1 -0
    outer loop
      vertex -1.4634 -29.7537 31.2467
      vertex -6.74158 -29.7537 21.1094
      vertex 1.4634 -29.7537 31.2467
    endloop
  endfacet
  facet normal 0 -1 0
    outer loop
      vertex 6.74158 -29.7537 21.1094
      vertex 1.4634 -29.7537 31.2467
      vertex -6.74158 -29.7537 21.1094
    endloop
  endfacet
  facet normal 0 -1 0
    outer loop
      vertex 4.32624 -29.7537 31.8576
      vertex 6.74158 -29.7537 21.1094
      vertex 10 -29.7537 22.5657
    endloop
  endfacet
  facet normal 0 -1 0
    outer loop
      vertex 4.32624 -29.7537 31.8576
      vertex 10 -29.7537 22.5657
      vertex 10.3041 -29.7537 22.7875
    endloop
  endfacet
  facet normal 0 -1 0
    outer loop
      vertex -6.74158 -29.7537 12.3087
      vertex 6.74158 -29.7537 21.1094
      vertex -6.74158 -29.7537 21.1094
    endloop
  endfacet
  facet normal 0 -1 -0
    outer loop
      vertex 6.74158 -29.7537 21.1094
      vertex -6.74158 -29.7537 12.3087
      vertex 6.74158 -29.7537 12.3087
    endloop
  endfacet
  facet normal 0 1 0
    outer loop
      vertex 13.9804 29.7537 48.9993
      vertex 11.3262 29.7537 48.2774
      vertex 10.6787 29.7537 48.9993
    endloop
  endfacet
  facet normal 0 1 0
    outer loop
      vertex 12.7896 29.7537 45.733
      vertex 13.9804 29.7537 48.9993
      vertex 15.936 29.7537 46.8192
    endloop
  endfacet
  facet normal 0 1 0
    outer loop
      vertex 16.3614 29.7537 46.2319
      vertex 15.936 29.7537 46.8192
      vertex 16.1803 29.7537 46.5467
    endloop
  endfacet
  facet normal 0 1 0
    outer loop
      vertex 15.936 29.7537 46.8192
      vertex 16.3614 29.7537 46.2319
      vertex 12.7896 29.7537 45.733
    endloop
  endfacet
  facet normal 0 1 0
    outer loop
      vertex 13.9804 29.7537 48.9993
      vertex 12.7896 29.7537 45.733
      vertex 11.3262 29.7537 48.2774
    endloop
  endfacet
  facet normal 0 1 0
    outer loop
      vertex 16.3614 29.7537 46.2319
      vertex 13.6941 29.7537 42.9389
      vertex 12.7896 29.7537 45.733
    endloop
  endfacet
  facet normal 0 1 0
    outer loop
      vertex 18.2709 29.7537 42.9119
      vertex 13.6941 29.7537 42.9389
      vertex 16.3614 29.7537 46.2319
    endloop
  endfacet
  facet normal 0 1 0
    outer loop
      vertex 18.2709 29.7537 42.9119
      vertex 14 29.7537 40.017
      vertex 13.6941 29.7537 42.9389
    endloop
  endfacet
  facet normal 0 1 0
    outer loop
      vertex 19.4624 29.7537 39.2309
      vertex 14 29.7537 40.017
      vertex 18.2709 29.7537 42.9119
    endloop
  endfacet
  facet normal 0 1 0
    outer loop
      vertex 13.6941 29.7537 37.0951
      vertex 19.4624 29.7537 39.2309
      vertex 19.563 29.7537 38.9202
    endloop
  endfacet
  facet normal 0 1 0
    outer loop
      vertex 19.4624 29.7537 39.2309
      vertex 13.6941 29.7537 37.0951
      vertex 14 29.7537 40.017
    endloop
  endfacet
  facet normal 0 1 0
    outer loop
      vertex 19.9683 29.7537 35.0491
      vertex 13.6941 29.7537 37.0951
      vertex 19.563 29.7537 38.9202
    endloop
  endfacet
  facet normal 0 1 0
    outer loop
      vertex 12.7896 29.7537 34.3009
      vertex 19.9683 29.7537 35.0491
      vertex 20 29.7537 34.7461
    endloop
  endfacet
  facet normal 0 1 0
    outer loop
      vertex 19.9683 29.7537 35.0491
      vertex 12.7896 29.7537 34.3009
      vertex 13.6941 29.7537 37.0951
    endloop
  endfacet
  facet normal 0 1 -0
    outer loop
      vertex 19.5924 29.7537 30.853
      vertex 12.7896 29.7537 34.3009
      vertex 20 29.7537 34.7461
    endloop
  endfacet
  facet normal 0 1 -0
    outer loop
      vertex 19.4768 29.7537 30.306
      vertex 12.7896 29.7537 34.3009
      vertex 19.5924 29.7537 30.853
    endloop
  endfacet
  facet normal 0 1 0
    outer loop
      vertex 19.4768 29.7537 30.306
      vertex 19.5924 29.7537 30.853
      vertex 19.563 29.7537 30.572
    endloop
  endfacet
  facet normal 0 1 0
    outer loop
      vertex 12.7896 29.7537 34.3009
      vertex 19.4768 29.7537 30.306
      vertex 11.3262 29.7537 31.7565
    endloop
  endfacet
  facet normal 0 1 -0
    outer loop
      vertex 18.2709 29.7537 26.5803
      vertex 11.3262 29.7537 31.7565
      vertex 19.4768 29.7537 30.306
    endloop
  endfacet
  facet normal 0 1 0
    outer loop
      vertex 11.3262 29.7537 31.7565
      vertex 18.2709 29.7537 26.5803
      vertex 9.36783 29.7537 29.5732
    endloop
  endfacet
  facet normal 0 1 -0
    outer loop
      vertex 16.3009 29.7537 23.1551
      vertex 9.36783 29.7537 29.5732
      vertex 18.2709 29.7537 26.5803
    endloop
  endfacet
  facet normal 0 1 -0
    outer loop
      vertex 16.0203 29.7537 22.7671
      vertex 9.36783 29.7537 29.5732
      vertex 16.3009 29.7537 23.1551
    endloop
  endfacet
  facet normal 0 1 0
    outer loop
      vertex 9.36783 29.7537 29.5732
      vertex 16.0203 29.7537 22.7671
      vertex 7 29.7537 27.8463
    endloop
  endfacet
  facet normal 0 1 -0
    outer loop
      vertex 13.2022 29.7537 19.6949
      vertex 7 29.7537 27.8463
      vertex 13.3826 29.7537 19.8264
    endloop
  endfacet
  facet normal 0 1 -0
    outer loop
      vertex 13.3826 29.7537 19.8264
      vertex 7 29.7537 27.8463
      vertex 16.0203 29.7537 22.7671
    endloop
  endfacet
  facet normal 0 1 -0
    outer loop
      vertex -11.3262 29.7537 48.2774
      vertex -13.9804 29.7537 48.9993
      vertex -10.6787 29.7537 48.9993
    endloop
  endfacet
  facet normal 0 1 -0
    outer loop
      vertex -12.7896 29.7537 45.733
      vertex -13.9804 29.7537 48.9993
      vertex -11.3262 29.7537 48.2774
    endloop
  endfacet
  facet normal 0 1 0
    outer loop
      vertex -13.9804 29.7537 48.9993
      vertex -12.7896 29.7537 45.733
      vertex -15.936 29.7537 46.8192
    endloop
  endfacet
  facet normal -0 1 0
    outer loop
      vertex -16.3614 29.7537 46.2319
      vertex -15.936 29.7537 46.8192
      vertex -12.7896 29.7537 45.733
    endloop
  endfacet
  facet normal 0 1 0
    outer loop
      vertex -15.936 29.7537 46.8192
      vertex -16.3614 29.7537 46.2319
      vertex -16.1803 29.7537 46.5467
    endloop
  endfacet
  facet normal 0 1 -0
    outer loop
      vertex -13.6941 29.7537 42.9389
      vertex -16.3614 29.7537 46.2319
      vertex -12.7896 29.7537 45.733
    endloop
  endfacet
  facet normal 0 1 0
    outer loop
      vertex -13.6941 29.7537 42.9389
      vertex -18.2709 29.7537 42.9119
      vertex -16.3614 29.7537 46.2319
    endloop
  endfacet
  facet normal 0 1 -0
    outer loop
      vertex -14 29.7537 40.017
      vertex -18.2709 29.7537 42.9119
      vertex -13.6941 29.7537 42.9389
    endloop
  endfacet
  facet normal 0 1 0
    outer loop
      vertex -14 29.7537 40.017
      vertex -19.4624 29.7537 39.2309
      vertex -18.2709 29.7537 42.9119
    endloop
  endfacet
  facet normal 0 1 0
    outer loop
      vertex -13.6941 29.7537 37.0951
      vertex -19.4624 29.7537 39.2309
      vertex -14 29.7537 40.017
    endloop
  endfacet
  facet normal 0 1 0
    outer loop
      vertex -19.4624 29.7537 39.2309
      vertex -13.6941 29.7537 37.0951
      vertex -19.563 29.7537 38.9202
    endloop
  endfacet
  facet normal 0 1 0
    outer loop
      vertex -13.6941 29.7537 37.0951
      vertex -19.9683 29.7537 35.0491
      vertex -19.563 29.7537 38.9202
    endloop
  endfacet
  facet normal 0 1 0
    outer loop
      vertex -12.7896 29.7537 34.3009
      vertex -19.9683 29.7537 35.0491
      vertex -13.6941 29.7537 37.0951
    endloop
  endfacet
  facet normal 0 1 0
    outer loop
      vertex -19.9683 29.7537 35.0491
      vertex -12.7896 29.7537 34.3009
      vertex -20 29.7537 34.7461
    endloop
  endfacet
  facet normal 0 1 0
    outer loop
      vertex -19.4768 29.7537 30.306
      vertex -12.7896 29.7537 34.3009
      vertex -11.3262 29.7537 31.7565
    endloop
  endfacet
  facet normal 0 1 0
    outer loop
      vertex -12.7896 29.7537 34.3009
      vertex -19.5924 29.7537 30.853
      vertex -20 29.7537 34.7461
    endloop
  endfacet
  facet normal 0 1 0
    outer loop
      vertex -12.7896 29.7537 34.3009
      vertex -19.4768 29.7537 30.306
      vertex -19.5924 29.7537 30.853
    endloop
  endfacet
  facet normal 0 1 0
    outer loop
      vertex -19.5924 29.7537 30.853
      vertex -19.4768 29.7537 30.306
      vertex -19.563 29.7537 30.572
    endloop
  endfacet
  facet normal 0 1 0
    outer loop
      vertex -18.2709 29.7537 26.5803
      vertex -11.3262 29.7537 31.7565
      vertex -9.36783 29.7537 29.5732
    endloop
  endfacet
  facet normal 0 1 0
    outer loop
      vertex -16.0203 29.7537 22.7671
      vertex -9.36783 29.7537 29.5732
      vertex -7 29.7537 27.8463
    endloop
  endfacet
  facet normal 0 1 0
    outer loop
      vertex -10 29.7537 17.3594
      vertex -7 29.7537 27.8463
      vertex -4.32624 29.7537 26.6513
    endloop
  endfacet
  facet normal 0 1 0
    outer loop
      vertex -11.3262 29.7537 31.7565
      vertex -18.2709 29.7537 26.5803
      vertex -19.4768 29.7537 30.306
    endloop
  endfacet
  facet normal 0 1 0
    outer loop
      vertex -6.74158 29.7537 15.9032
      vertex -4.32624 29.7537 26.6513
      vertex -1.4634 29.7537 26.0405
    endloop
  endfacet
  facet normal 0 1 -0
    outer loop
      vertex 10 29.7537 17.3594
      vertex 7 29.7537 27.8463
      vertex 13.2022 29.7537 19.6949
    endloop
  endfacet
  facet normal 0 1 0
    outer loop
      vertex -9.36783 29.7537 29.5732
      vertex -16.3009 29.7537 23.1551
      vertex -18.2709 29.7537 26.5803
    endloop
  endfacet
  facet normal 0 1 0
    outer loop
      vertex 16.0203 29.7537 22.7671
      vertex 16.3009 29.7537 23.1551
      vertex 16.1803 29.7537 22.9455
    endloop
  endfacet
  facet normal 0 1 0
    outer loop
      vertex 7 29.7537 27.8463
      vertex 10 29.7537 17.3594
      vertex 4.32624 29.7537 26.6513
    endloop
  endfacet
  facet normal 0 1 0
    outer loop
      vertex -9.36783 29.7537 29.5732
      vertex -16.0203 29.7537 22.7671
      vertex -16.3009 29.7537 23.1551
    endloop
  endfacet
  facet normal 0 1 0
    outer loop
      vertex -16.3009 29.7537 23.1551
      vertex -16.0203 29.7537 22.7671
      vertex -16.1803 29.7537 22.9455
    endloop
  endfacet
  facet normal 0 1 -0
    outer loop
      vertex 6.74158 29.7537 15.9032
      vertex 4.32624 29.7537 26.6513
      vertex 10 29.7537 17.3594
    endloop
  endfacet
  facet normal 0 1 0
    outer loop
      vertex 4.32624 29.7537 26.6513
      vertex 6.74158 29.7537 15.9032
      vertex 1.4634 29.7537 26.0405
    endloop
  endfacet
  facet normal 0 1 0
    outer loop
      vertex -7 29.7537 27.8463
      vertex -13.2022 29.7537 19.6949
      vertex -13.3826 29.7537 19.8264
    endloop
  endfacet
  facet normal 0 1 0
    outer loop
      vertex -7 29.7537 27.8463
      vertex -13.3826 29.7537 19.8264
      vertex -16.0203 29.7537 22.7671
    endloop
  endfacet
  facet normal 0 1 0
    outer loop
      vertex 1.4634 29.7537 26.0405
      vertex 6.74158 29.7537 15.9032
      vertex -1.4634 29.7537 26.0405
    endloop
  endfacet
  facet normal 0 1 0
    outer loop
      vertex -6.74158 29.7537 15.9032
      vertex -1.4634 29.7537 26.0405
      vertex 6.74158 29.7537 15.9032
    endloop
  endfacet
  facet normal 0 1 0
    outer loop
      vertex -4.32624 29.7537 26.6513
      vertex -6.74158 29.7537 15.9032
      vertex -10 29.7537 17.3594
    endloop
  endfacet
  facet normal 0 1 0
    outer loop
      vertex -7 29.7537 27.8463
      vertex -10 29.7537 17.3594
      vertex -13.2022 29.7537 19.6949
    endloop
  endfacet
  facet normal 0 1 -0
    outer loop
      vertex 6.74158 29.7537 14.0225
      vertex -6.74158 29.7537 15.9032
      vertex 6.74158 29.7537 15.9032
    endloop
  endfacet
  facet normal 0 1 0
    outer loop
      vertex -6.74158 29.7537 15.9032
      vertex 6.74158 29.7537 14.0225
      vertex -6.74158 29.7537 14.0225
    endloop
  endfacet
  facet normal 0 1 0
    outer loop
      vertex 9.54214 29.7537 6.13236
      vertex 6.74158 29.7537 6.67296
      vertex 7.70101 29.7537 6.67296
    endloop
  endfacet
  facet normal 0 1 0
    outer loop
      vertex 6.74158 29.7537 6.67296
      vertex 13.4832 29.7537 0
      vertex -6.74158 29.7537 6.67296
    endloop
  endfacet
  facet normal 0 1 0
    outer loop
      vertex 11.1564 29.7537 5.09495
      vertex 6.74158 29.7537 6.67296
      vertex 9.54214 29.7537 6.13236
    endloop
  endfacet
  facet normal 0 1 0
    outer loop
      vertex -13.4832 29.7537 0
      vertex -6.74158 29.7537 6.67296
      vertex 13.4832 29.7537 0
    endloop
  endfacet
  facet normal 0 1 0
    outer loop
      vertex 6.74158 29.7537 6.67296
      vertex 11.1564 29.7537 5.09495
      vertex 13.4832 29.7537 0
    endloop
  endfacet
  facet normal -0 1 0
    outer loop
      vertex -11.1564 29.7537 5.09495
      vertex -6.74158 29.7537 6.67296
      vertex -13.4832 29.7537 0
    endloop
  endfacet
  facet normal 0 1 0
    outer loop
      vertex 13.4832 29.7537 0
      vertex 11.1564 29.7537 5.09495
      vertex 12.413 29.7537 3.64477
    endloop
  endfacet
  facet normal 0 1 0
    outer loop
      vertex -6.74158 29.7537 6.67296
      vertex -9.54214 29.7537 6.13236
      vertex -7.70101 29.7537 6.67296
    endloop
  endfacet
  facet normal 0 1 0
    outer loop
      vertex 13.4832 29.7537 0
      vertex 12.413 29.7537 3.64477
      vertex 13.2101 29.7537 1.89932
    endloop
  endfacet
  facet normal 0 1 0
    outer loop
      vertex -6.74158 29.7537 6.67296
      vertex -11.1564 29.7537 5.09495
      vertex -9.54214 29.7537 6.13236
    endloop
  endfacet
  facet normal 0 1 0
    outer loop
      vertex -11.1564 29.7537 5.09495
      vertex -13.4832 29.7537 0
      vertex -12.413 29.7537 3.64477
    endloop
  endfacet
  facet normal 0 1 0
    outer loop
      vertex -12.413 29.7537 3.64477
      vertex -13.4832 29.7537 0
      vertex -13.2101 29.7537 1.89932
    endloop
  endfacet
  facet normal 0 1 0
    outer loop
      vertex 6.74158 29.7537 14.0225
      vertex 6.74158 29.7537 6.67296
      vertex -6.74158 29.7537 14.0225
    endloop
  endfacet
  facet normal 0 1 0
    outer loop
      vertex -6.74158 29.7537 6.67296
      vertex -6.74158 29.7537 14.0225
      vertex 6.74158 29.7537 6.67296
    endloop
  endfacet
  facet normal 0 0.0871557 0.996195
    outer loop
      vertex -13.9804 -18.4565 53.2172
      vertex -10.6787 29.7537 48.9993
      vertex -13.9804 29.7537 48.9993
    endloop
  endfacet
  facet normal -4.18026e-07 0.0871557 0.996195
    outer loop
      vertex -10.6787 29.7537 48.9993
      vertex -13.9804 -18.4565 53.2172
      vertex -10.6787 -29.7537 54.2056
    endloop
  endfacet
  facet normal 0 0.0871559 0.996195
    outer loop
      vertex -10.6787 -29.7537 54.2056
      vertex -13.9804 -18.4565 53.2172
      vertex -13.9804 -29.7537 54.2056
    endloop
  endfacet
  facet normal -0 0.0871557 0.996195
    outer loop
      vertex 10.6787 29.7537 48.9993
      vertex 13.9804 -18.4565 53.2172
      vertex 13.9804 29.7537 48.9993
    endloop
  endfacet
  facet normal 4.18026e-07 0.0871557 0.996195
    outer loop
      vertex 10.6787 -29.7537 54.2056
      vertex 13.9804 -18.4565 53.2172
      vertex 10.6787 29.7537 48.9993
    endloop
  endfacet
  facet normal 0 0.0871559 0.996195
    outer loop
      vertex 13.9804 -18.4565 53.2172
      vertex 10.6787 -29.7537 54.2056
      vertex 13.9804 -29.7537 54.2056
    endloop
  endfacet
endsolid OpenSCAD_Model
